<?xml version="1.0" encoding="UTF-8"?>
<svg width="420" height="320" version="1.1" viewBox="0 0 111.13 84.667" xmlns="http://www.w3.org/2000/svg">
<g stroke="#7dd3fc" stroke-width=".26458">
<path transform="matrix(2 0 0 2 -.0015503 -21.167)" d="m54.24 50.535v-29.633c0-0.5845-0.47384-1.0583-1.0583-1.0583-7.7996 4e-6 -14.57 5.3e-5 -26.195 5.4e-5 -0.29225 0-0.6967 0.16751-0.90337 0.37414l-3.2203 3.2197a1.2777 1.2777 157.5 0 1-0.90339 0.37414l-19.58 2e-6a1.0575 1.0575 135 0 0-1.0575 1.0575l-1e-7 25.665a1.0591 1.0591 45 0 0 1.0591 1.0591l50.8-1.7e-5a1.0583 1.0583 135 0 0 1.0583-1.0583z" fill="#7dd3fc" fill-opacity=".5"/>
<path transform="matrix(2 0 0 2 -.0015503 -21.167)" d="m2.6458 23.812v-10.848a1.0583 1.0583 135 0 1 1.0583-1.0583h18.256a1.279 1.279 22.476 0 1 0.90366 0.37387l3.2198 3.2145a1.2795 1.2795 22.484 0 0 0.90364 0.37401l24.872 0.0069a1.0578 1.0578 45.008 0 1 1.0575 1.0578v2.9112l-25.93 1.3e-5a1.2777 1.2777 157.5 0 0-0.90337 0.37414l-3.2203 3.2197a1.2777 1.2777 157.5 0 1-0.90339 0.37414z" fill-opacity="0"/>
</g>
</svg>
