<?xml version="1.0" encoding="utf-8"?>
<!-- Generator: Adobe Illustrator 24.1.2, SVG Export Plug-In . SVG Version: 6.00 Build 0)  -->
<svg version="1.1" id="Layer_1" xmlns="http://www.w3.org/2000/svg" xmlns:xlink="http://www.w3.org/1999/xlink" x="0px" y="0px"
	 viewBox="0 0 640 540" style="enable-background:new 0 0 640 540;" xml:space="preserve">
<style type="text/css">
	.st0{fill:url(#SVGID_1_);stroke:#82828C;stroke-width:5;stroke-miterlimit:10;}
	.st1{fill:url(#SVGID_2_);stroke:#A3A3A3;stroke-width:5;stroke-miterlimit:10;}
</style>
<linearGradient id="SVGID_1_" gradientUnits="userSpaceOnUse" x1="319.5" y1="19.5" x2="319.5" y2="179.5">
	<stop  offset="0" style="stop-color:#A1A1AA"/>
	<stop  offset="0.2954" style="stop-color:#9898A1"/>
	<stop  offset="0.7849" style="stop-color:#7E7E87"/>
	<stop  offset="1" style="stop-color:#71717A"/>
</linearGradient>
<path class="st0" d="M579.5,19.5H377.78c-5.3,0-10.39,2.11-14.14,5.86l-38.28,38.28c-3.75,3.75-8.84,5.86-14.14,5.86H59.5
	c-11.05,0-20,8.95-20,20v70c0,11.05,8.95,20,20,20h540v-140C599.5,28.45,590.55,19.5,579.5,19.5z"/>
<linearGradient id="SVGID_2_" gradientUnits="userSpaceOnUse" x1="319.5" y1="119.5" x2="319.5" y2="519.5">
	<stop  offset="0" style="stop-color:#D4D4D4"/>
	<stop  offset="0.2908" style="stop-color:#CBCBCB"/>
	<stop  offset="0.7729" style="stop-color:#B1B1B1"/>
	<stop  offset="1" style="stop-color:#A3A3A3"/>
</linearGradient>
<path class="st1" d="M599.5,169.5H427.78c-5.3,0-10.39-2.11-14.14-5.86l-38.28-38.28c-3.75-3.75-8.84-5.86-14.14-5.86H39.5
	c-11.05,0-20,8.95-20,20v360c0,11.05,8.95,20,20,20h560c11.05,0,20-8.95,20-20v-310C619.5,178.45,610.55,169.5,599.5,169.5z"/>
</svg>
