<?xml version="1.0" encoding="utf-8"?>
<!-- Generator: Adobe Illustrator 24.1.2, SVG Export Plug-In . SVG Version: 6.00 Build 0)  -->
<svg version="1.1" id="Layer_1" xmlns="http://www.w3.org/2000/svg" xmlns:xlink="http://www.w3.org/1999/xlink" x="0px" y="0px"
	 viewBox="0 0 640 540" style="enable-background:new 0 0 640 540;" xml:space="preserve">
<style type="text/css">
	.st0{fill:url(#SVGID_1_);stroke:#A1A1AA;stroke-width:5;stroke-miterlimit:10;}
	.st1{fill:url(#SVGID_2_);stroke:#71717A;stroke-width:5;stroke-miterlimit:10;}
</style>
<linearGradient id="SVGID_1_" gradientUnits="userSpaceOnUse" x1="319.5" y1="19.5" x2="319.5" y2="519.5">
	<stop  offset="0" style="stop-color:#D4D4D8"/>
	<stop  offset="0.2823" style="stop-color:#CBCBD0"/>
	<stop  offset="0.7501" style="stop-color:#B1B1B9"/>
	<stop  offset="1" style="stop-color:#A1A1AA"/>
</linearGradient>
<path class="st0" d="M519.5,499.5V147.78c0-5.3-2.11-10.39-5.86-14.14L405.36,25.36c-3.75-3.75-8.84-5.86-14.14-5.86H139.5
	c-11.05,0-20,8.95-20,20v460c0,11.05,8.95,20,20,20h360C510.55,519.5,519.5,510.55,519.5,499.5z"/>
<linearGradient id="SVGID_2_" gradientUnits="userSpaceOnUse" x1="457.3817" y1="23.7366" x2="457.3817" y2="139.5">
	<stop  offset="0" style="stop-color:#A1A1AA"/>
	<stop  offset="1" style="stop-color:#71717A"/>
</linearGradient>
<path class="st1" d="M399.5,26.74v92.76c0,11.05,8.95,20,20,20h92.76c2.67,0,4.01-3.23,2.12-5.12L404.62,24.62
	C402.73,22.73,399.5,24.07,399.5,26.74z"/>
</svg>
