<?xml version="1.0" encoding="utf-8"?>
<!-- Generator: Adobe Illustrator 24.1.2, SVG Export Plug-In . SVG Version: 6.00 Build 0)  -->
<svg version="1.1" id="Layer_1" xmlns="http://www.w3.org/2000/svg" xmlns:xlink="http://www.w3.org/1999/xlink" x="0px" y="0px"
	 viewBox="0 0 800 600" style="enable-background:new 0 0 800 600;" xml:space="preserve">
<style type="text/css">
	.st0{display:none;fill:#808080;stroke:#000000;stroke-width:20;stroke-miterlimit:10;}
	.st1{fill:none;stroke:#000000;stroke-width:40;stroke-miterlimit:10;}
	.st2{fill:none;stroke:#E5E5E5;stroke-width:40;stroke-miterlimit:10;}
	.st3{fill:#FFFFFF;stroke:#E5E5E5;stroke-width:40;stroke-miterlimit:10;}
	.st4{display:none;fill:#FFFFFF;stroke:#000000;stroke-miterlimit:10;}
	.st5{display:none;fill:none;stroke:#000000;stroke-miterlimit:10;}
	.st6{display:none;fill:none;stroke:#000000;stroke-width:2;stroke-miterlimit:10;}
	.st7{fill:#E5E5E5;}
	.st8{stroke:#E5E5E5;stroke-width:40;stroke-miterlimit:10;}
</style>
<rect x="-164" y="-181" class="st0" width="1322" height="1100"/>
<path class="st1" d="M624.5,289.5L624.5,289.5"/>
<path class="st2" d="M300,230v240c0,33.14,26.86,60,60,60h260"/>
<line class="st3" x1="480" y1="230" x2="480" y2="430"/>
<path class="st4" d="M299.5,300"/>
<path class="st4" d="M399.5,379.5"/>
<path class="st5" d="M385.5,193.5l84-84c55.23-55.23,144.77-55.23,200,0l0,0l0,0c27.61,27.61,41.42,63.81,41.42,100
	c0,32.41-11.83,57.18-15.06,63.59c-8.49,16.88-18.81,28.86-26.36,36.41c-26,26-52,52-78,78"/>
<path class="st4" d="M494.78,88.11"/>
<path class="st4" d="M505.5,74.5"/>
<path class="st4" d="M495.96,88.11"/>
<line class="st5" x1="399.5" y1="379.5" x2="569.21" y2="209.79"/>
<line class="st5" x1="400.5" y1="379.5" x2="230.79" y2="209.79"/>
<path class="st2" d="M480,340c0,49.71-40.29,90-90,90s-90-40.29-90-90"/>
<path class="st6" d="M300,300c0-55.23,44.77-100,100-100s100,44.77,100,100"/>
<path class="st2" d="M672.67,302.15C712.54,321.66,740,362.62,740,410c0,66.27-53.73,120-120,120"/>
<path class="st2" d="M180,530c-66.27,0-120-53.73-120-120c0-47.38,27.46-88.34,67.33-107.85"/>
<path class="st2" d="M292.15,137.33C311.66,97.46,352.62,70,400,70c47.38,0,88.34,27.46,107.85,67.33"/>
<path class="st2" d="M127.33,302.15c-11-18.13-17.33-39.4-17.33-62.15c0-66.27,53.73-120,120-120c22.75,0,44.02,6.33,62.15,17.33"/>
<path class="st2" d="M507.85,137.33c18.13-11,39.4-17.33,62.15-17.33c66.27,0,120,53.73,120,120c0,22.75-6.33,44.02-17.33,62.15"/>
<circle class="st7" cx="127" cy="302" r="20"/>
<circle class="st7" cx="673" cy="302" r="20"/>
<circle class="st7" cx="292" cy="137" r="20"/>
<circle class="st7" cx="508" cy="137" r="20"/>
<circle class="st7" cx="180" cy="530" r="20"/>
<circle class="st7" cx="300" cy="230" r="20"/>
<circle class="st7" cx="480" cy="430" r="20"/>
<circle class="st7" cx="480" cy="230" r="20"/>
<line class="st8" x1="540" y1="230" x2="620" y2="230"/>
<line class="st8" x1="580" y1="190" x2="580" y2="270"/>
<circle class="st7" cx="580" cy="190" r="20"/>
<circle class="st7" cx="580" cy="270" r="20"/>
<circle class="st7" cx="540" cy="230" r="20"/>
<circle class="st7" cx="620" cy="230" r="20"/>
</svg>
