<?xml version="1.0" encoding="UTF-8"?>
<svg width="400" height="300" version="1.1" viewBox="0 0 105.83 79.375" xmlns="http://www.w3.org/2000/svg">
<g stroke="#7dd3fc">
<path transform="matrix(2 0 0 2 -2.6489 -23.812)" d="m43.526 50.403-3.4e-5 -27.781a0.13233 0.13233 45 0 0-0.13233-0.13233h-9.2602a1.0585 1.0585 45 0 1-1.0585-1.0585v-9.2602a0.13232 0.13232 45 0 0-0.13232-0.13232h-19.845a1.0575 1.0575 135 0 0-1.0575 1.0575v37.306a1.0591 1.0591 45 0 0 1.0591 1.0591h29.368a1.0583 1.0583 135 0 0 1.0583-1.0583z" fill="#7dd3fc" fill-opacity=".4" stroke-width=".26458"/>
<path d="m63.687 0.45167 20.528 20.528a0.10959 0.10959 112.5 0 1-0.07749 0.18709h-18.52a2.117 2.117 45 0 1-2.117-2.117v-18.52a0.10959 0.10959 157.5 0 1 0.18709-0.077495z" fill="none" stroke-width=".52917"/>
<rect x="37.042" y="31.75" width="31.75" height="21.167" rx=".52917" ry=".52917" fill="none" stroke-linecap="round" stroke-width=".52917" style="paint-order:normal"/>
<path transform="translate(-4.2019e-7 -.13229)" d="m37.571 31.75c-0.29225-1e-6 -0.52917 0.23692-0.52917 0.52917v4.2333c-1.33e-4 0.29306-0.0285 0.65903 0.26455 0.66146h31.221c0.29144 0.0024 0.2645-0.10543 0.26464-0.39688v-4.4979c0-0.29225-0.23692-0.52917-0.52917-0.52917zm19.05 1.1906c0.87675 0 1.5875 0.71075 1.5875 1.5875s-0.71075 1.5875-1.5875 1.5875-1.5875-0.71075-1.5875-1.5875 0.71075-1.5875 1.5875-1.5875zm4.7625 0c0.87675 0 1.5875 0.71075 1.5875 1.5875s-0.71075 1.5875-1.5875 1.5875-1.5875-0.71075-1.5875-1.5875 0.71075-1.5875 1.5875-1.5875zm4.7625 0c0.87675 0 1.5875 0.71075 1.5875 1.5875s-0.71075 1.5875-1.5875 1.5875-1.5875-0.71075-1.5875-1.5875 0.71075-1.5875 1.5875-1.5875z" fill="#7dd3fc" stroke-linecap="round" stroke-width=".52917" style="paint-order:normal"/>
<path transform="translate(1.5875 2.3813)" d="m39.687 38.365 3.7042 3.7042a0.37418 0.37418 90 0 1 0 0.52917l-3.7042 3.7042" fill="none" stroke-linecap="round" stroke-width="1.0583" style="paint-order:normal"/>
</g>
</svg>
