<?xml version="1.0" encoding="UTF-8"?>
<svg width="400" height="300" version="1.1" viewBox="0 0 105.83 79.375" xmlns="http://www.w3.org/2000/svg">
<g stroke="#7dd3fc">
<path transform="matrix(2 0 0 2 -2.6489 -23.812)" d="m43.526 50.403-3.4e-5 -27.781a0.13229 0.13229 45 0 0-0.13229-0.13229h-9.2602c-0.5846 0-1.0585-0.47391-1.0585-1.0585-6e-5 -3.0845 2.4e-5 -6.1737 2.6e-5 -9.2602 0-0.07308-0.05924-0.13232-0.13232-0.13232h-19.844a1.0583 1.0583 135 0 0-1.0583 1.0583v37.306a1.0583 1.0583 45 0 0 1.0583 1.0583h29.369a1.0583 1.0583 135 0 0 1.0583-1.0583z" fill="#7dd3fc" fill-opacity=".4" stroke-width=".26458"/>
<path d="m63.687 0.45167 20.528 20.528a0.10959 0.10959 112.5 0 1-0.07749 0.18709h-18.52a2.117 2.117 45 0 1-2.117-2.117v-18.52a0.10959 0.10959 157.5 0 1 0.18709-0.077495z" fill="none" stroke-width=".52917"/>
<path d="m58.819 27.04-5.19 1.4828a2.8061 2.8061 127.03 0 0-2.0352 2.6982v17.198a0.52916 0.52916 45 0 0 0.52916 0.52916l1.5875-5e-6a0.52917 0.52917 135 0 0 0.52917-0.52917v-14.817l6.6146-1.8521v-3.175a1.5966 1.5966 37.027 0 0-2.0352-1.5352z" fill="#7dd3fc" stroke-width=".52917"/>
<ellipse cx="49.212" cy="49.033" rx="5.112" ry="3.7891" fill="#7dd3fc" stroke-width=".35935"/>
</g>
</svg>
