<?xml version="1.0" encoding="UTF-8"?>
<svg width="400" height="300" version="1.1" viewBox="0 0 105.83 79.375" xmlns="http://www.w3.org/2000/svg">
<g stroke="#7dd3fc">
<path transform="matrix(2 0 0 2 -2.6489 -23.812)" d="m47.494 50.403v-37.439a0.92604 0.92604 45 0 0-0.92604-0.92604h-37.439a1.0575 1.0575 135 0 0-1.0575 1.0575v37.306a1.0591 1.0591 45 0 0 1.0591 1.0591h37.305a1.0583 1.0583 135 0 0 1.0583-1.0583z" fill="#7dd3fc" fill-opacity=".4" stroke-width=".26458"/>
<path transform="rotate(180 50.403 8.0698)" d="m47.625 0.52917 4.7625-2e-8a0.52913 0.52913 45 0 1 0.52913 0.52913v3.7043a0.52913 0.52913 135 0 1-0.52913 0.52913h-4.7625z" fill="#7ed4fc" stroke-width=".52917"/>
<path transform="rotate(180 50.403 13.361)" d="m47.625 0.52917 4.7625-2e-8a0.52913 0.52913 45 0 1 0.52913 0.52913v3.7043a0.52913 0.52913 135 0 1-0.52913 0.52913h-4.7625z" fill="#7ed4fc" stroke-width=".52917"/>
<path transform="translate(-.26461 .070158)" d="m48.154 0.26458 5.2916-0.070158v4.2333a0.52917 0.52917 135 0 1-0.52917 0.52917h-4.2333a0.52916 0.52916 45 0 1-0.52916-0.52917z" fill="#7ed4fc" stroke-width=".52917"/>
<path transform="matrix(-1 0 0 1 105.57 5.0271)" d="m48.154 0.52917h4.7625v4.7625h-4.7625a0.52917 0.52917 45 0 1-0.52917-0.52917v-3.7042a0.52917 0.52917 135 0 1 0.52917-0.52917z" fill="#7ed4fc" stroke-width=".52917"/>
<path transform="matrix(-1 0 0 1 106.06 15.61)" d="m48.683 0.52917 4.7244 4e-8v4.7625h-4.7244a0.52917 0.52917 45 0 1-0.52917-0.52917v-3.7042a0.52917 0.52917 135 0 1 0.52917-0.52917z" fill="#7ed4fc" stroke-width=".52917"/>
<path transform="matrix(-1 0 0 1 106.06 26.194)" d="m48.683 0.52917 4.7244 4e-8v4.7625h-4.7244a0.52917 0.52917 45 0 1-0.52917-0.52917v-3.7042a0.52917 0.52917 135 0 1 0.52917-0.52917z" fill="#7ed4fc" stroke-width=".52917"/>
<path transform="translate(.39689 7.6729)" d="m53.049 32.015-5.2916-3e-6 -2.5037 14.521a0.99469 0.99469 59.718 0 0 0.64568 1.1057l5.8327 2.0831a2.3423 2.3423 1.1562e-4 0 0 1.5756 3e-6l5.8328-2.0831a0.99469 0.99469 120.28 0 0 0.64568-1.1057l-2.5037-14.521z" fill="none" stroke-width="1.0583"/>
<path transform="translate(.39689 .26458)" d="m53.049 32.015h-4.7625a0.52917 0.52917 135 0 0-0.52917 0.52917v6.35a0.52917 0.52917 45 0 0 0.52917 0.52917h8.4667a0.52917 0.52917 135 0 0 0.52917-0.52917v-6.35a0.52917 0.52917 45 0 0-0.52917-0.52917z" fill="none" stroke-width="1.0583"/>
</g>
</svg>
