<?xml version="1.0" encoding="UTF-8"?>
<svg width="400" height="300" version="1.1" viewBox="0 0 105.83 79.375" xmlns="http://www.w3.org/2000/svg">
<g stroke="#7dd3fc">
<path transform="matrix(2 0 0 2 -2.6489 -23.812)" d="m43.526 50.403-3.4e-5 -27.781a0.13233 0.13233 45 0 0-0.13233-0.13233h-9.2602a1.0585 1.0585 45 0 1-1.0585-1.0585v-9.2602a0.13232 0.13232 45 0 0-0.13232-0.13232h-19.845a1.0575 1.0575 135 0 0-1.0575 1.0575v37.306a1.0591 1.0591 45 0 0 1.0591 1.0591h29.368a1.0583 1.0583 135 0 0 1.0583-1.0583z" fill="#7dd3fc" fill-opacity=".4" stroke-width=".26458"/>
<path d="m37.042 58.208 21.167 8e-6" fill="none" stroke-linecap="round" stroke-width="1.0583"/>
<path d="m37.042 26.458h31.75" fill="none" stroke-linecap="round" stroke-width="1.0583"/>
<path d="m37.042 52.917h31.75" fill="none" stroke-linecap="round" stroke-width="1.0583" style="paint-order:normal"/>
<path d="m63.687 0.45167 20.528 20.528a0.10959 0.10959 112.5 0 1-0.07749 0.18709h-18.52a2.117 2.117 45 0 1-2.117-2.117v-18.52a0.10959 0.10959 157.5 0 1 0.18709-0.077495z" fill="none" stroke-width=".52917"/>
<path d="m37.042 31.75h31.75" fill="none" stroke-linecap="round" stroke-width="1.0583"/>
<path d="m37.042 42.333h31.75" fill="none" stroke-linecap="round" stroke-width="1.0583"/>
<path d="m37.042 47.625 26.458 6e-6" fill="none" stroke-linecap="round" stroke-width="1.0583"/>
<path d="m37.042 37.042 21.167 8e-6" fill="none" stroke-linecap="round" stroke-width="1.0583"/>
</g>
</svg>
