<?xml version="1.0" encoding="UTF-8"?>
<svg width="400" height="300" version="1.1" viewBox="0 0 105.83 79.375" xmlns="http://www.w3.org/2000/svg">
<g stroke="#7dd3fc" stroke-width=".26458">
<path transform="matrix(2 0 0 2 -2.6489 -23.812)" d="m54.108 50.403v-29.501c0-0.5845-0.47384-1.0583-1.0583-1.0583-7.7892 5e-6 -14.441 5.3e-5 -26.062 5.4e-5 -0.29225 0-0.6967 0.16751-0.90337 0.37414l-3.2203 3.2197a1.2778 1.2778 157.5 0 1-0.90339 0.37416l-19.447 7.02e-4a1.0576 1.0576 135 0 0-1.0575 1.0576v25.532a1.0591 1.0591 45 0 0 1.0591 1.0591h50.535a1.0583 1.0583 135 0 0 1.0583-1.0583z" fill="#7dd3fc" fill-opacity=".4"/>
<path transform="matrix(2 0 0 2 -2.6489 -23.812)" d="m2.6458 23.812 7.052e-4 -10.715a1.0584 1.0584 135 0 1 1.0584-1.0583h18.256a1.3104 1.3104 21.99 0 1 0.90995 0.36746l3.2064 3.0943a1.3109 1.3109 21.998 0 0 0.90993 0.3676l24.872 0.0069a1.0578 1.0578 45.008 0 1 1.0575 1.0578v2.9112l-25.93 1.3e-5a1.2777 1.2777 157.5 0 0-0.90337 0.37414l-3.2203 3.2197a1.2777 1.2777 157.5 0 1-0.90339 0.37414z" fill-opacity="0"/>
</g>
</svg>
